<?xml version="1.0" encoding="iso-8859-1"?>
<!-- Generator: Adobe Illustrator 19.0.0, SVG Export Plug-In . SVG Version: 6.00 Build 0)  -->
<svg version="1.1" id="Layer_1" xmlns="http://www.w3.org/2000/svg" xmlns:xlink="http://www.w3.org/1999/xlink" x="0px" y="0px"
	 viewBox="0 0 512 512" xml:space="preserve">
	 <style>
	 @media (prefers-color-scheme: light) {
		 path {
			 fill: black;
		 }		 
	 }
	 @media (prefers-color-scheme: dark) {
		 path {
			 fill: white;
		 }		 
	 }
	 </style>
<g>
	<g>
		<path d="M456.585,0H89.281C61.618,0,38.957,22.424,38.957,50.087v411.826c0,27.662,22.662,50.087,50.324,50.087h367.304
			c9.22,0,16.459-7.475,16.459-16.696V16.696C473.043,7.475,465.805,0,456.585,0z M439.652,478.609H89.281
			c-9.22,0-16.696-7.475-16.696-16.696c0-9.206,7.49-16.696,16.696-16.696c175.268,0,176.737,0,350.372,0V478.609z M439.652,411.826
			H89.281c-5.886,0-11.368,1.202-16.933,3.066V50.087c0-9.22,7.712-16.696,16.933-16.696h350.372V411.826z"/>
	</g>
</g>
<g>
	<g>
		<path d="M323.02,166.957h-50.324V116.87c0-9.22-7.475-16.696-16.696-16.696c-9.22,0-16.696,7.475-16.696,16.696v50.087h-49.85
			c-9.22,0-16.696,7.475-16.696,16.696c0,9.22,7.475,16.696,16.696,16.696h49.85v116.87c0,9.22,7.475,16.696,16.696,16.696
			c9.22,0,16.696-7.475,16.696-16.696v-116.87h50.324c9.22,0,16.696-7.475,16.696-16.696
			C339.715,174.432,332.24,166.957,323.02,166.957z"/>
	</g>
</g>
<g>
</g>
<g>
</g>
<g>
</g>
<g>
</g>
<g>
</g>
<g>
</g>
<g>
</g>
<g>
</g>
<g>
</g>
<g>
</g>
<g>
</g>
<g>
</g>
<g>
</g>
<g>
</g>
<g>
</g>
</svg>
